<?xml version="1.0" encoding="UTF-8"?>
<svg version="1.1" xmlns="http://www.w3.org/2000/svg" width="220" height="220">
<path d="M0 0 C8.91715555 6.24033587 15.21443643 14.73026998 17.51171875 25.46484375 C19.13544334 36.51409157 17.10406523 47.22765295 10.83203125 56.58203125 C9.532126 58.29541398 8.1933996 59.97956571 6.83203125 61.64453125 C6.35040527 62.23540527 5.8687793 62.8262793 5.37255859 63.43505859 C3.76794767 65.39121668 2.14834632 67.33348896 0.51953125 69.26953125 C-0.27227539 70.21300415 -0.27227539 70.21300415 -1.08007812 71.17553711 C-2.39733665 72.70546914 -3.77780137 74.18053101 -5.16796875 75.64453125 C-5.82796875 75.64453125 -6.48796875 75.64453125 -7.16796875 75.64453125 C-6.62269531 76.23878906 -6.07742187 76.83304687 -5.515625 77.4453125 C-1.44411191 81.92049698 2.52677058 86.43996736 6.33203125 91.14453125 C9.37400695 94.88973075 12.45860953 98.58311047 15.64453125 102.20703125 C16.35222656 103.01269531 17.05992187 103.81835938 17.7890625 104.6484375 C21.19452155 107.97575982 23.91375893 108.9450309 28.64453125 109.01953125 C33.86139085 108.904114 36.67227076 107.78557489 40.83203125 104.64453125 C44.02348178 101.02755398 44.45189753 97.07007116 45.109375 92.4375 C44.40583611 85.35256609 39.75607461 79.93882839 35.14453125 74.83203125 C34.07710375 73.61938777 33.01070861 72.40583484 31.9453125 71.19140625 C31.42018066 70.59650391 30.89504883 70.00160156 30.35400391 69.38867188 C26.73144116 65.23731027 23.29045444 60.93269709 19.83203125 56.64453125 C19.0740625 55.80664062 18.31609375 54.96875 17.53515625 54.10546875 C15.83203125 51.64453125 15.83203125 51.64453125 15.87890625 49.53125 C16.1109375 48.80550781 16.34296875 48.07976562 16.58203125 47.33203125 C17.76346772 42.67619284 18.04383248 38.24050734 18.01953125 33.45703125 C18.01308594 32.14347656 18.00664062 30.82992187 18 29.4765625 C17.83774671 25.77492339 17.42394214 22.2954376 16.83203125 18.64453125 C24.26767461 25.84031514 30.95488595 33.7009072 37.45703125 41.73828125 C39.54915205 44.29837644 41.67389968 46.82238703 43.82226562 49.33496094 C45.69242682 51.52560815 47.54768643 53.72848778 49.3984375 55.93554688 C50.3670343 57.09020928 51.33846612 58.24249855 52.3125 59.39257812 C62.94223021 72.01712647 68.39343618 82.74908716 67.07128906 99.58984375 C65.85914599 109.99943157 60.05486174 118.46383489 52.01953125 124.95703125 C42.13729288 131.70175287 32.5483413 132.93609299 20.83203125 131.64453125 C8.67012224 129.25984321 0.5806168 121.06997631 -6.8203125 111.6328125 C-9.36011949 108.3999467 -11.9984889 105.27007994 -14.66796875 102.14453125 C-18.79031779 97.29609069 -22.83791016 92.39288894 -26.85546875 87.45703125 C-29.42944074 84.32652477 -32.04407643 81.23317036 -34.66796875 78.14453125 C-60.61538964 47.53316643 -60.61538964 47.53316643 -59.16796875 27.64453125 C-57.07670607 15.91219319 -50.70162582 6.62942721 -41.16796875 -0.35546875 C-28.60353863 -8.00049237 -12.39672953 -7.75074801 0 0 Z M-33.98046875 22.64453125 C-37.52765915 27.50924951 -37.81655416 31.80726257 -37.16796875 37.64453125 C-35.05640987 45.00645275 -29.26048025 50.20768623 -24.16796875 55.64453125 C-22.46714796 57.61967798 -20.81572123 59.62470563 -19.16796875 61.64453125 C-19.05195312 60.81695312 -19.05195312 60.81695312 -18.93359375 59.97265625 C-17.89440431 56.81267203 -16.08633228 54.90753535 -13.91796875 52.39453125 C-5.68731552 42.96630454 -5.68731552 42.96630454 -3.74609375 31.0390625 C-4.63929213 25.96933466 -6.96369521 22.73411208 -10.79296875 19.26953125 C-18.42323059 14.04882578 -27.96596213 15.77569131 -33.98046875 22.64453125 Z M-17.16796875 62.64453125 C-15.85901155 65.76650603 -15.85901155 65.76650603 -13.16796875 67.64453125 C-14.47692595 64.52255647 -14.47692595 64.52255647 -17.16796875 62.64453125 Z M-12.16796875 68.64453125 C-10.85901155 71.76650603 -10.85901155 71.76650603 -8.16796875 73.64453125 C-9.47692595 70.52255647 -9.47692595 70.52255647 -12.16796875 68.64453125 Z " fill="#FF4E9F" transform="translate(130.16796875,46.35546875)"/>
<path d="M0 0 C1.1178323 3.3534969 0.81430253 3.75386883 0 7 C-0.12127165 9.55516539 -0.18630814 12.07024924 -0.1875 14.625 C-0.1968457 15.34284668 -0.20619141 16.06069336 -0.21582031 16.80029297 C-0.21393375 20.98940764 0.26582292 24.16719446 1.75 28.125 C2.39048803 30.75320951 2.44497963 32.2409171 1.06201172 34.60009766 C-1.78614585 38.43986007 -5.07263438 41.8679631 -8.39013672 45.30126953 C-10.68856811 47.72657824 -12.77382491 50.27646271 -14.875 52.875 C-15.94041016 54.18984375 -15.94041016 54.18984375 -17.02734375 55.53125 C-24.83591332 64.61372421 -24.83591332 64.61372421 -26.875 75.9375 C-26.28067715 80.5281317 -25.16308276 83.49496235 -22 87 C-17.65877958 90.10087173 -13.72853531 90.37191021 -8.5625 90.49609375 C3.97364967 88.06912575 14.83312597 69.68314328 22 60 C26.39072461 61.61377468 28.87631184 64.90808342 31.8125 68.375 C32.5849707 69.24125 32.5849707 69.24125 33.37304688 70.125 C34.83203125 71.8359375 34.83203125 71.8359375 37 75 C36.51758922 79.51991945 33.41209434 82.30895406 30.5 85.5625 C29.39562665 86.81377415 28.29277565 88.06639347 27.19140625 89.3203125 C26.64629395 89.94067383 26.10118164 90.56103516 25.53955078 91.20019531 C23.40121328 93.70000883 21.43282935 96.3229305 19.4375 98.9375 C13.64409033 106.0791941 5.4011011 112.11972517 -3.96850586 113.23413086 C-16.59660092 114.04497684 -26.78846205 112.55903932 -36.875 104.3125 C-44.78771496 96.70135857 -49.12895496 87.59071118 -49.43188477 76.59399414 C-49.46827635 61.80793609 -44.77432463 53.03015891 -35 42 C-33.15618665 39.84216009 -31.32932124 37.67012717 -29.5 35.5 C-28.5625302 34.39580769 -27.62503047 33.29164079 -26.6875 32.1875 C-23.51968155 28.44371455 -20.42743638 24.63966056 -17.33203125 20.8359375 C-14.19684037 17.02329331 -11.00586241 13.25926436 -7.8046875 9.50195312 C-5.14669849 6.37744393 -2.5458993 3.21649748 0 0 Z " fill="#FF4E9F" transform="translate(71,65)"/>
</svg>
